<?xml version="1.0" encoding="UTF-8"?>
<svg id="Layer_2" data-name="Layer 2" xmlns="http://www.w3.org/2000/svg" viewBox="0 0 698.21 202.41">
  <defs>
    <style>
      .cls-1, .cls-2 {
        fill: #ff0054;
      }

      .cls-2 {
        fill-rule: evenodd;
      }
    </style>
  </defs>
  <g id="Layer_1-2" data-name="Layer 1">
    <g>
      <g>
        <path class="cls-2" d="m77.92,200.29h-22.7c-30.46,0-55.23-22.93-55.23-51.28v-55.56c0-18.2,10.22-34.23,25.62-43.36.58-.35.65-1.12.15-1.56-5.9-5.12-9.59-12.41-9.59-20.49C16.17,12.58,29.68,0,46.29,0c18.31,0,26.47,13.03,33.88,26.33.4.72,1.51.72,1.91,0C89.48,13.03,97.64,0,115.95,0c16.61,0,30.12,12.58,30.12,28.04,0,8.08-3.68,15.38-9.58,20.49-.51.44-.44,1.22.15,1.56,15.39,9.13,25.61,25.16,25.62,43.36v48.34l-.05,20.82c0,20.81-18.22,37.67-40.69,37.67-12.73,0-24.1-5.42-31.56-13.9-5.7-6.48-9.13-14.76-9.13-23.78,0-19.27,15.63-35.16,35.79-37.4,1.25-.14,2.51-.24,3.79-.28h.42c3.99,0,7.22,3.21,7.22,7.17s-3.15,7.08-7.14,7.08h-.17c-13.55.51-24.37,10.88-24.37,23.55s11.38,23.53,25.41,23.53,25.41-10.54,25.41-23.53l.03-13.01-.04-7.94v-47.38c0-21.14-16.32-38.32-39.04-38.32-17.35,0-38.55,8.7-43.03,22.45-1.34,4.1-1.07,18.26-1.02,23.25.11,11.26,14.06,18.83,19.73,21.44,1.05.49,1.2,1.81.3,2.51-3.34,2.57-6.32,5.53-8.86,8.8-.57.74-1.62,1-2.52.64-3-1.18-9.22-4.84-12.24-7.25-7.79-6.2-11.78-9.48-12.04-25.99-.01-.7-.03-1.62-.05-2.72-.34-16.88.16-23.43,2.13-28.04,2.09-4.89,5.52-10.24,12.78-13.58.83-.38.55-1.54-.38-1.54h0s-7.71,0-7.71,0c-22.15,0-40.17,16.77-40.17,37.38v55.56c0,20.61,18.02,37.38,40.17,37.38h13.43l4.11.04c.37,0,.71.19.9.49,1.29,2.02,2.75,3.96,4.36,5.8,1.86,2.12,3.89,4.06,6.07,5.82.75.6.28,1.75-.7,1.75h-5.47"/>
        <ellipse class="cls-1" cx="112.41" cy="91.02" rx="8.32" ry="8.27"/>
        <path class="cls-2" d="m121.55,200.29c-12.73,0-24.1-5.42-31.56-13.9-5.7-6.48-9.13-14.76-9.13-23.78"/>
      </g>
      <g>
        <path class="cls-1" d="m243.62,148.92c0,2.4-.66,4.22-1.96,5.46-1.31,1.24-3.13,1.86-5.47,1.86h-34.51c.28,3.8,1.82,6.93,4.62,9.41,2.8,2.48,6.14,3.72,10.04,3.72,4.81,0,11.42-2.01,14.54-6.04,1.34-1.78,2.97-2.67,4.89-2.67,1.7,0,3.2.7,4.51,2.09,1.31,1.39,1.96,3.02,1.96,4.88s-.64,3.41-1.91,4.88c-5.81,6.97-15.6,10.45-24.1,10.45-5.66,0-10.74-1.32-15.24-3.95-4.5-2.63-8-6.31-10.51-11.03-2.51-4.72-3.77-10.18-3.77-16.38s1.22-11.48,3.66-16.32c2.44-4.84,5.84-8.63,10.19-11.38,4.35-2.75,9.26-4.12,14.71-4.12,8,0,14.48,2.54,19.43,7.61,4.95,5.07,7.89,11.67,8.81,19.8.07.39.11.97.11,1.74Zm-37.81-12.49c-2.55,2.29-3.93,5.25-4.14,8.89h27.29c-.28-3.64-1.7-6.6-4.25-8.89-2.55-2.28-5.7-3.43-9.45-3.43s-6.9,1.14-9.45,3.43Z"/>
        <path class="cls-1" d="m386.98,148.92c0,2.4-.66,4.22-1.96,5.46-1.31,1.24-3.13,1.86-5.47,1.86h-34.51c.28,3.8,1.82,6.93,4.62,9.41,2.8,2.48,6.14,3.72,10.04,3.72,4.81,0,11.42-2.01,14.54-6.04,1.34-1.78,2.97-2.67,4.89-2.67,1.7,0,3.2.7,4.51,2.09,1.31,1.39,1.96,3.02,1.96,4.88s-.64,3.41-1.91,4.88c-5.81,6.97-15.6,10.45-24.1,10.45-5.66,0-10.74-1.32-15.24-3.95-4.5-2.63-8-6.31-10.51-11.03-2.51-4.72-3.77-10.18-3.77-16.38s1.22-11.48,3.66-16.32c2.44-4.84,5.84-8.63,10.19-11.38,4.35-2.75,9.26-4.12,14.71-4.12,8,0,14.48,2.54,19.43,7.61,4.95,5.07,7.89,11.67,8.81,19.8.07.39.11.97.11,1.74Zm-37.81-12.49c-2.55,2.29-3.93,5.25-4.14,8.89h27.29c-.28-3.64-1.7-6.6-4.25-8.89-2.55-2.28-5.7-3.43-9.45-3.43s-6.9,1.14-9.45,3.43Z"/>
        <path class="cls-1" d="m252.32,107.03c0-2.4.76-4.29,2.28-5.67,1.52-1.38,3.27-2.07,5.26-2.07s3.73.69,5.26,2.07c1.52,1.38,2.28,3.27,2.28,5.67v67.83c0,2.4-.76,4.29-2.28,5.67-1.52,1.38-3.28,2.07-5.26,2.07s-3.74-.69-5.26-2.07c-1.52-1.38-2.28-3.27-2.28-5.67v-67.83Z"/>
        <path class="cls-1" d="m278.82,107.03c0-2.4.76-4.29,2.28-5.67,1.52-1.38,3.27-2.07,5.26-2.07s3.73.69,5.26,2.07c1.52,1.38,2.28,3.27,2.28,5.67v67.83c0,2.4-.76,4.29-2.28,5.67-1.52,1.38-3.28,2.07-5.26,2.07s-3.74-.69-5.26-2.07c-1.52-1.38-2.28-3.27-2.28-5.67v-67.83Z"/>
        <path class="cls-1" d="m307.83,113.94c-1.66-1.67-2.5-3.68-2.5-6.03s.83-4.36,2.5-6.03c1.66-1.67,3.66-2.51,6-2.51s4.34.84,6,2.51c1.66,1.67,2.5,3.68,2.5,6.03s-.83,4.36-2.5,6.03c-1.66,1.67-3.66,2.51-6,2.51s-4.34-.84-6-2.51Zm-1.54,18.36c0-2.37.76-4.24,2.28-5.61,1.52-1.37,3.27-2.05,5.26-2.05s3.82.68,5.31,2.05c1.49,1.37,2.23,3.24,2.23,5.61v42.64c0,2.37-.76,4.25-2.28,5.61-1.52,1.37-3.28,2.05-5.26,2.05s-3.74-.68-5.26-2.05c-1.52-1.37-2.28-3.24-2.28-5.61v-42.64Z"/>
        <path class="cls-1" d="m444.24,124.18c4.07,2.87,7.19,6.7,9.35,11.5,2.16,4.8,3.24,10.1,3.24,15.91s-1.11,11.44-3.34,16.2c-2.23,4.76-5.43,8.5-9.61,11.21-4.18,2.71-9.06,4.07-14.65,4.07-3.54,0-6.99-.85-10.35-2.56-3.36-1.7-6.07-4.22-8.12-7.55v21.2c0,2.56-.74,4.57-2.23,6.04-1.49,1.47-3.26,2.21-5.31,2.21s-3.74-.74-5.26-2.21c-1.52-1.47-2.28-3.48-2.28-6.04v-65.68c0-2.56.76-4.57,2.28-6.04,1.52-1.47,3.27-2.21,5.26-2.21s3.82.74,5.31,2.21c1.49,1.47,2.23,3.48,2.23,6.04v3.14c1.27-3.56,3.63-6.41,7.06-8.54,3.43-2.13,7.49-3.19,12.16-3.19,5.45,0,10.21,1.43,14.28,4.3Zm-7.77,39.32c2.91-3.14,4.36-7.14,4.36-12.02s-1.43-8.89-4.31-12.02c-2.87-3.14-6.58-4.7-11.11-4.7s-7.4,1.59-10.27,4.76c-2.87,3.18-4.31,7.16-4.31,11.96s1.44,8.79,4.31,11.96c2.87,3.18,5.8,4.76,10.27,4.76s8.15-1.57,11.06-4.7Z"/>
        <path class="cls-1" d="m508.83,122.67c3.4,1.94,6.12,4.9,8.18,8.89,2.05,3.99,3.08,8.93,3.08,14.81v27.64c0,2.71-.76,4.82-2.28,6.33-1.52,1.51-3.31,2.26-5.36,2.26s-3.84-.75-5.36-2.26c-1.52-1.51-2.28-3.62-2.28-6.33v-25.09c0-5.34-1.13-9.18-3.4-11.5-2.27-2.32-5.06-3.48-8.39-3.48-3.75,0-6.76,1.32-9.03,3.95-2.27,2.63-3.4,6.47-3.4,11.5v24.97c0,2.56-.76,4.57-2.28,6.04-1.52,1.47-3.28,2.21-5.26,2.21s-3.73-.74-5.26-2.21c-1.52-1.47-2.28-3.48-2.28-6.04v-66.74c0-2.56.76-4.57,2.28-6.04,1.52-1.47,3.27-2.21,5.26-2.21s3.73.74,5.26,2.21c1.52,1.47,2.28,3.48,2.28,6.04v21.91c3.68-6.5,9.38-9.76,17.1-9.76,4.04,0,7.75.97,11.15,2.9Z"/>
        <path class="cls-1" d="m587.2,122.62c1.49,1.43,2.23,3.47,2.23,6.1v45.65c0,2.56-.74,4.57-2.23,6.04-1.49,1.47-3.26,2.21-5.31,2.21s-3.84-.74-5.36-2.21c-1.52-1.47-2.28-3.48-2.28-6.04v-3.02c-1.42,3.64-3.84,6.49-7.27,8.54-3.43,2.05-7.45,3.08-12.05,3.08-5.45,0-10.19-1.41-14.23-4.24-4.04-2.83-7.13-6.66-9.29-11.5-2.16-4.84-3.24-10.16-3.24-15.97s1.11-11.44,3.35-16.2c2.23-4.76,5.43-8.5,9.61-11.21,4.18-2.71,9.06-4.07,14.66-4.07,3.61,0,7.08.87,10.41,2.61,3.33,1.74,6.02,4.24,8.07,7.49v-1.16c0-2.63.76-4.66,2.28-6.1,1.52-1.43,3.31-2.15,5.36-2.15s3.82.72,5.31,2.15Zm-17.07,40.83c2.67-3.17,4.01-7.2,4.01-12.08s-1.34-8.77-4.01-11.91c-2.67-3.14-6.09-4.7-10.25-4.7s-7.69,1.57-10.4,4.7c-2.71,3.14-4.06,7.11-4.06,11.91s1.35,9,4.06,12.14c2.71,3.14,6.17,4.7,10.4,4.7s7.58-1.59,10.25-4.76Z"/>
        <path class="cls-1" d="m643.5,122.67c3.43,1.94,6.18,4.9,8.23,8.89,2.05,3.99,3.08,8.93,3.08,14.81v27.64c0,2.71-.76,4.82-2.28,6.33-1.52,1.51-3.31,2.26-5.36,2.26s-3.84-.75-5.36-2.26c-1.52-1.51-2.28-3.62-2.28-6.33v-25.09c0-5.34-1.13-9.18-3.4-11.5-2.27-2.32-5.06-3.48-8.39-3.48-3.75,0-6.76,1.32-9.03,3.95-2.27,2.63-3.43,6.47-3.5,11.5v24.86c0,2.56-.76,4.57-2.28,6.04-1.52,1.47-3.28,2.21-5.26,2.21s-3.84-.74-5.36-2.21c-1.52-1.47-2.28-3.48-2.28-6.04v-45.65c0-2.56.76-4.57,2.28-6.04,1.52-1.47,3.31-2.21,5.36-2.21s3.82.72,5.31,2.15c1.49,1.43,2.23,3.47,2.23,6.1v1.04c3.68-6.58,9.38-9.87,17.1-9.87,4.04,0,7.77.97,11.2,2.9Z"/>
        <path class="cls-1" d="m684.72,133.17v31.22c0,3.94,1.37,5.59,4.64,5.85l.98.1c3.73.41,5.75,1.97,5.75,5.49,0,4.45-4.35,6.73-10.72,6.73h-.52c-10.1,0-15.22-5.02-15.22-14.81v-38.96s-3.81,0-3.81,0c-1.63,0-3.03-.64-4.2-1.92s-1.75-2.81-1.75-4.59.58-3.31,1.75-4.59,2.57-1.92,4.2-1.92h3.82v-8.13c0-2.56.76-4.57,2.28-6.04,1.52-1.47,3.27-2.21,5.26-2.21s3.73.74,5.26,2.21c1.52,1.47,2.28,3.48,2.28,6.04v8.13h7.65c1.56,0,2.92.64,4.09,1.92s1.75,2.81,1.75,4.59-.58,3.31-1.75,4.59-2.53,1.92-4.09,1.92h-7.65v4.38Z"/>
      </g>
    </g>
  </g>
</svg>